<svg width="377" height="279" viewBox="0 0 377 279" fill="none" xmlns="http://www.w3.org/2000/svg">
<path d="M175 278.592C177.546 276.951 180.206 275.193 182.738 273.51C228.762 242.207 275.624 211.788 326.119 189.225C328.929 187.962 331.719 186.737 334.548 185.522C333.181 182.558 331.814 179.595 330.447 176.631C327.636 178.018 324.869 179.413 322.084 180.844C272.054 206.459 226.74 239.453 182.456 273.11C180.019 274.925 177.454 276.816 175 278.592Z" fill="black"/>
<path d="M283.464 42.232C285.808 66.929 304.922 86.7227 329.521 89.9254L343.568 91.7559C347.113 92.2178 347.023 97.3794 343.464 97.7173L329.362 99.0562C304.666 101.398 284.872 120.513 281.668 145.113L279.84 159.147C279.378 162.692 274.216 162.602 273.878 159.043L272.541 144.954C271.727 136.377 268.889 128.392 264.503 121.488C263.764 120.326 262.301 119.884 261.015 120.377C258.744 121.249 256.483 122.121 254.222 123.001C170.654 155.761 88.69 194.213 12.4531 242.715C8.25619 245.447 4.11897 248.204 0 251.091C3.87672 247.886 7.78506 244.8 11.7588 241.737C82.1288 188.652 159.079 144.368 238.53 105.319C240.747 104.23 240.75 101.128 238.439 100.254C234.647 98.8189 230.643 97.802 226.482 97.2603L212.436 95.4299C208.891 94.9679 208.981 89.8064 212.54 89.4685L226.643 88.1295C251.34 85.7871 271.132 66.6728 274.337 42.0728L276.165 28.0374C276.627 24.4923 281.788 24.5823 282.126 28.1414L283.464 42.232Z" fill="black"/>
<path d="M339.067 138.247L340.641 154.821C341.597 164.896 349.394 172.971 359.43 174.278L375.939 176.429L359.365 178.003C349.29 178.958 341.215 186.756 339.908 196.792L337.757 213.3L336.184 196.727C335.228 186.652 327.431 178.577 317.394 177.27L300.885 175.119L317.459 173.545C327.535 172.59 335.61 164.792 336.917 154.756L339.067 138.247Z" fill="black"/>
<path d="M221.11 174.629L221.525 179.002C221.777 181.66 223.834 183.79 226.482 184.135L230.838 184.703L226.465 185.118C223.807 185.37 221.676 187.427 221.332 190.075L220.764 194.431L220.349 190.058C220.097 187.4 218.04 185.269 215.392 184.925L211.036 184.357L215.409 183.942C218.067 183.69 220.198 181.632 220.542 178.985L221.11 174.629Z" fill="black"/>
<path d="M356.349 2.95165L357.214 12.0627C357.74 17.6014 362.026 22.0403 367.543 22.7585L376.618 23.9411L367.507 24.8061C361.969 25.3314 357.53 29.618 356.811 35.1349L355.629 44.2097L354.765 35.0992C354.239 29.5606 349.952 25.1217 344.435 24.4034L335.36 23.2209L344.471 22.3558C350.01 21.8305 354.449 17.5439 355.167 12.027L356.349 2.95165Z" fill="black"/>
<path d="M279.608 1.60581L283.464 42.2327C285.808 66.9297 304.922 86.7231 329.521 89.9259L369.988 95.1988L329.362 99.0562C304.666 101.398 284.873 120.513 281.668 145.113L276.397 185.578L272.541 144.954C270.197 120.257 251.083 100.463 226.483 97.2604L186.016 91.9875L226.642 88.1301C251.34 85.7879 271.132 66.6735 274.337 42.0734L279.608 1.60581Z" fill="black"/>
</svg>
